<svg version="1.1" id="Layer_1" xmlns="http://www.w3.org/2000/svg" xmlns:xlink="http://www.w3.org/1999/xlink" x="0px" y="0px"
	 width="100%" viewBox="0 0 3840 2160" enable-background="new 0 0 3840 2160" xml:space="preserve">

<path fill="#12B560" opacity="1.000000" stroke="none" 
	d="
M2965.009277,1124.559082 
	C2967.367188,1155.006226 2980.942139,1179.402466 3001.881348,1199.691162 
	C3027.715820,1224.723511 3058.864746,1237.417236 3095.096191,1236.203125 
	C3110.377686,1235.690918 3125.786377,1235.351196 3140.861572,1233.092651 
	C3170.505371,1228.651245 3196.502930,1215.314941 3220.282471,1197.389160 
	C3225.524658,1193.437500 3230.960205,1189.742554 3236.716309,1185.637085 
	C3239.277344,1188.356934 3241.335693,1190.042969 3242.776855,1192.151123 
	C3256.506592,1212.233521 3270.212891,1232.333130 3283.748047,1252.546875 
	C3289.359131,1260.926392 3289.019531,1262.171997 3280.720215,1268.927368 
	C3240.965332,1301.286621 3195.589844,1320.738037 3144.880127,1327.813477 
	C3105.964844,1333.243164 3067.122314,1333.733643 3028.743164,1324.128052 
	C2938.855469,1301.630249 2882.808838,1244.617432 2860.255371,1155.325928 
	C2847.660645,1105.462646 2847.908936,1054.921997 2860.292725,1004.838318 
	C2870.326172,964.260803 2889.109375,928.030640 2918.640137,898.233032 
	C2946.669434,869.950745 2980.541748,851.014282 3019.188477,841.211121 
	C3065.637695,829.428650 3112.170410,828.830322 3158.355957,842.616821 
	C3212.300781,858.719421 3251.639893,892.796692 3278.091309,942.028564 
	C3295.853516,975.088257 3305.829590,1010.627258 3308.110107,1047.991943 
	C3309.363525,1068.524048 3308.588623,1089.202881 3308.154541,1109.803467 
	C3307.981445,1118.021240 3305.920166,1119.333008 3297.630371,1119.733276 
	C3293.971680,1119.909912 3290.299072,1119.819946 3286.632812,1119.820068 
	C3184.306885,1119.824707 3081.980957,1119.791016 2979.655273,1119.930542 
	C2974.699707,1119.937378 2968.710205,1117.675781 2965.009277,1124.559082 
M3050.698730,929.374756 
	C3046.638672,930.877014 3042.478760,932.155151 3038.534424,933.916382 
	C3002.038330,950.211243 2976.860596,976.357483 2967.608643,1016.132202 
	C2963.972412,1031.764893 2965.557129,1033.689941 2981.438965,1033.697021 
	C3048.078369,1033.726807 3114.718018,1033.721680 3181.357422,1033.703003 
	C3198.208740,1033.698242 3198.583496,1033.320557 3196.196289,1016.757446 
	C3190.789795,979.246948 3165.763672,940.255798 3117.418457,928.262817 
	C3095.619141,922.855042 3073.910889,922.766785 3050.698730,929.374756 
z"/>
<path fill="#12B560" opacity="1.000000" stroke="none" 
	d="
M3779.350586,1200.633911 
	C3791.528320,1218.607666 3803.358398,1235.951294 3814.993652,1253.424194 
	C3820.181885,1261.215454 3819.934570,1261.908691 3812.405762,1268.104248 
	C3771.433350,1301.819702 3724.512451,1321.541870 3671.933594,1328.315918 
	C3635.289795,1333.036865 3598.766113,1333.427612 3562.671631,1324.933960 
	C3476.879150,1304.745483 3419.856689,1252.671509 3394.561768,1168.160034 
	C3376.447754,1107.641602 3376.760254,1046.381714 3396.611816,986.077820 
	C3414.503418,931.727234 3447.687012,889.205688 3498.337402,861.328064 
	C3523.730957,847.351440 3551.036377,839.069763 3579.707031,835.136475 
	C3616.492920,830.089722 3652.942871,831.665405 3688.504395,842.597107 
	C3742.397217,859.164185 3782.594238,892.446472 3808.642334,942.788513 
	C3833.533203,990.893921 3841.787842,1042.248779 3839.849609,1095.743530 
	C3839.645264,1101.384644 3839.158203,1107.024170 3838.565918,1112.639526 
	C3838.068115,1117.357422 3835.170654,1119.632202 3830.448486,1119.664795 
	C3826.449951,1119.692383 3822.451904,1119.815308 3818.453613,1119.815674 
	C3718.469238,1119.824585 3618.484863,1119.822876 3518.500488,1119.823120 
	C3515.500977,1119.823120 3512.501221,1119.815308 3509.501709,1119.826294 
	C3494.526855,1119.880859 3493.671875,1120.964355 3496.681152,1136.044678 
	C3506.213379,1183.809448 3547.214111,1225.291992 3597.805664,1233.797974 
	C3651.766357,1242.870239 3702.651855,1233.193481 3747.617188,1199.904419 
	C3753.979004,1195.194702 3760.448730,1190.630493 3768.047852,1185.148071 
	C3772.026611,1190.601929 3775.475098,1195.329102 3779.350586,1200.633911 
M3665.000000,1033.719727 
	C3680.318604,1033.719604 3695.637451,1033.738281 3710.956055,1033.714111 
	C3728.199463,1033.686768 3728.941406,1033.188354 3726.079346,1016.201416 
	C3720.274902,981.746887 3703.347656,954.422852 3672.019531,937.773926 
	C3648.081543,925.052307 3622.227783,921.631958 3595.402100,925.903503 
	C3547.637451,933.509094 3507.386230,970.857422 3497.407959,1016.886780 
	C3494.188477,1031.737183 3495.721436,1033.690430 3511.145996,1033.702026 
	C3561.763916,1033.739868 3612.382080,1033.717896 3665.000000,1033.719727 
z"/>
<path fill="#12B560" opacity="1.000000" stroke="none" 
	d="
M602.001892,1324.466553 
	C592.003662,1324.434570 582.997864,1324.610962 574.008423,1324.305420 
	C566.298828,1324.043457 564.862305,1322.429077 564.393982,1314.684692 
	C564.172974,1311.030396 564.278442,1307.354736 564.278137,1303.688843 
	C564.271851,1224.363770 564.284119,1145.038574 564.262085,1065.713501 
	C564.255676,1042.884399 560.850891,1020.575623 553.767700,998.848450 
	C538.862671,953.128235 503.144196,934.444458 458.167511,941.251709 
	C413.214386,948.055420 383.807312,974.764465 367.514526,1016.494690 
	C361.418457,1032.108276 357.881134,1048.431274 357.740265,1065.265259 
	C357.168610,1133.564209 356.739044,1201.864502 356.291260,1270.164551 
	C356.197296,1284.495605 356.388367,1298.829834 356.184082,1313.158813 
	C356.045868,1322.852051 354.751740,1324.288208 345.132568,1324.341187 
	C314.470276,1324.510376 283.806030,1324.505005 253.143616,1324.348877 
	C244.036758,1324.302612 242.782730,1322.781982 242.352966,1313.845581 
	C242.209015,1310.852051 242.277176,1307.847412 242.277115,1304.847900 
	C242.274368,1160.196289 242.272308,1015.544617 242.277771,870.893005 
	C242.278488,851.731445 242.297028,851.721741 261.505341,851.714050 
	C286.169434,851.704224 310.833557,851.710083 335.497650,851.714783 
	C338.163879,851.715271 340.834869,851.657959 343.495422,851.791504 
	C351.911102,852.214050 353.386780,853.471680 353.608612,861.898926 
	C354.003143,876.887756 354.044678,891.885742 354.312103,906.878418 
	C354.368195,910.022827 354.762665,913.161133 355.165039,918.459290 
	C358.325836,914.695679 360.038330,912.813904 361.578125,910.799988 
	C394.220551,868.104919 437.852081,844.052551 490.415802,835.906921 
	C521.342651,831.114319 551.668030,835.014648 580.674438,846.724365 
	C624.095520,864.253113 650.737854,897.394714 665.660522,940.748169 
	C673.960938,964.862549 678.194275,989.824463 678.225159,1015.342285 
	C678.343201,1112.998657 678.286194,1210.655273 678.263916,1308.311768 
	C678.260315,1324.189819 678.021301,1324.402832 661.994690,1324.445679 
	C642.330444,1324.498169 622.665833,1324.463013 602.001892,1324.466553 
z"/>
<path fill="#12B560" opacity="1.000000" stroke="none" 
	d="
M1062.748901,944.828125 
	C1017.334778,930.051086 960.004761,949.274536 932.997070,999.603149 
	C919.714050,1024.355957 914.549805,1050.984497 914.413452,1078.568359 
	C914.042786,1153.544556 914.304993,1228.523682 914.263977,1303.501709 
	C914.251831,1325.583008 915.814636,1324.421997 892.809143,1324.481079 
	C867.488647,1324.546143 842.167908,1324.495239 816.847229,1324.481934 
	C814.182373,1324.480469 811.505798,1324.534058 808.854858,1324.316650 
	C801.623535,1323.723999 800.386353,1322.473267 799.864197,1315.162842 
	C799.650940,1312.176880 799.727356,1309.167725 799.727234,1306.169189 
	C799.721802,1160.878540 799.719055,1015.587830 799.726318,870.297180 
	C799.727234,851.741760 799.752869,851.726318 818.468811,851.716797 
	C844.127930,851.703735 869.787170,851.679077 895.446167,851.733826 
	C909.830872,851.764526 911.254028,853.086243 911.618042,867.786926 
	C911.947937,881.108582 911.854858,894.440308 912.040771,907.766296 
	C912.077393,910.386902 912.536072,913.001648 912.956787,917.173096 
	C915.372131,914.909302 917.101929,913.706177 918.299377,912.104980 
	C950.093811,869.588196 993.114075,845.862793 1044.792603,837.020996 
	C1074.261353,831.979065 1103.315063,834.893494 1131.423096,844.819885 
	C1174.679443,860.095825 1203.360474,890.498535 1220.005127,932.705261 
	C1231.137817,960.935181 1236.129761,990.447693 1236.193970,1020.673584 
	C1236.397827,1116.645020 1236.285156,1212.617065 1236.259521,1308.588867 
	C1236.255615,1323.245361 1235.810181,1323.667114 1220.992554,1323.693115 
	C1193.000854,1323.742188 1165.009033,1323.714722 1137.017212,1323.694580 
	C1134.354858,1323.692627 1131.677856,1323.660034 1129.033691,1323.388062 
	C1125.228638,1322.996948 1122.926758,1320.754028 1122.609741,1316.943481 
	C1122.306519,1313.298584 1122.289673,1309.623047 1122.288818,1305.960938 
	C1122.270996,1228.317017 1122.360840,1150.673096 1122.223389,1073.029419 
	C1122.176636,1046.587769 1119.598755,1020.419922 1110.209106,995.419861 
	C1101.538208,972.333801 1087.439941,954.091675 1062.748901,944.828125 
z"/>
<path fill="#12B560" opacity="1.000000" stroke="none" 
	d="
M1652.411865,862.308105 
	C1677.352051,847.779663 1703.931641,840.714722 1731.531616,836.763367 
	C1789.063477,828.526917 1844.615967,835.266357 1897.397217,859.955200 
	C1913.918091,867.682983 1929.354126,877.747009 1945.185913,886.915771 
	C1948.328003,888.735535 1951.114502,891.229187 1953.884399,893.621216 
	C1964.348877,902.658630 1964.397095,903.158936 1956.324219,914.649048 
	C1943.874146,932.369141 1931.410645,950.079895 1918.891113,967.750977 
	C1917.000122,970.420044 1914.775635,972.852844 1912.037842,976.214233 
	C1908.305542,973.888123 1904.927246,971.995667 1901.772949,969.783875 
	C1869.881958,947.421082 1835.007690,932.339539 1796.253418,927.077820 
	C1772.733765,923.884460 1749.655273,925.633118 1727.810669,935.841858 
	C1717.967529,940.441895 1709.586426,946.834717 1704.469116,956.836487 
	C1696.035889,973.318970 1698.778442,990.637085 1712.083496,1003.474487 
	C1724.458618,1015.414978 1739.917358,1021.722778 1756.040771,1026.205811 
	C1781.391479,1033.254517 1806.991699,1039.400391 1832.408447,1046.218262 
	C1857.848755,1053.042603 1883.119385,1060.394165 1906.475708,1073.050659 
	C1928.931519,1085.219238 1948.341187,1100.900146 1959.686890,1124.168701 
	C1976.833984,1159.334839 1977.127441,1195.880615 1962.945801,1231.845337 
	C1946.348877,1273.935059 1915.145142,1301.529175 1872.770508,1316.892700 
	C1847.766357,1325.958374 1821.800781,1329.880615 1795.471069,1331.555176 
	C1759.328857,1333.853760 1723.593628,1330.903076 1688.428955,1321.831787 
	C1649.827637,1311.874023 1614.444092,1295.526367 1583.752197,1269.717651 
	C1583.242188,1269.288818 1582.721436,1268.872192 1582.221558,1268.431763 
	C1572.811523,1260.141113 1572.740234,1259.107056 1580.484741,1248.887207 
	C1593.967407,1231.095337 1607.390869,1213.258423 1620.916504,1195.499268 
	C1623.280762,1192.395020 1626.024414,1189.579712 1629.027100,1186.132324 
	C1632.978882,1188.796021 1636.340088,1190.867554 1639.493896,1193.217407 
	C1673.252441,1218.370117 1710.722534,1234.800415 1752.440796,1241.103882 
	C1776.131348,1244.683105 1799.619507,1243.980957 1822.421997,1235.876831 
	C1828.656494,1233.661011 1834.894653,1230.941772 1840.434082,1227.372070 
	C1866.293091,1210.707397 1867.355103,1174.622925 1842.786621,1156.110229 
	C1829.997559,1146.473389 1815.167969,1141.387207 1799.909302,1137.683960 
	C1759.393311,1127.850708 1719.435791,1116.214355 1680.266479,1101.911499 
	C1652.804932,1091.883789 1629.193604,1076.265381 1610.229614,1053.827393 
	C1601.237427,1043.188232 1595.314087,1031.007935 1591.638672,1017.684631 
	C1574.468262,955.444031 1599.542358,895.804443 1648.461548,864.903625 
	C1649.587891,864.192139 1650.687012,863.437561 1652.411865,862.308105 
z"/>
<path fill="#12B560" opacity="1.000000" stroke="none" 
	d="
M2189.721680,1204.000000 
	C2189.721436,1238.991455 2189.725586,1272.982788 2189.713867,1306.974243 
	C2189.712891,1309.972412 2189.689941,1312.974731 2189.534180,1315.967773 
	C2189.287109,1320.715576 2186.699463,1323.261353 2181.959961,1323.529297 
	C2179.632568,1323.660889 2177.297363,1323.697266 2174.965576,1323.698120 
	C2146.306152,1323.708862 2117.646729,1323.712646 2088.987305,1323.692505 
	C2086.324951,1323.690674 2083.647217,1323.659912 2081.003906,1323.382080 
	C2077.197021,1322.981567 2074.932861,1320.719482 2074.602539,1316.910767 
	C2074.315186,1313.598633 2074.291260,1310.256226 2074.291016,1306.927246 
	C2074.276855,1160.297485 2074.273926,1013.667786 2074.285889,867.038086 
	C2074.287109,850.354309 2074.342529,850.300049 2091.021240,850.297791 
	C2194.995117,850.283936 2298.968750,850.284180 2402.942627,850.297302 
	C2420.226807,850.299500 2420.250488,850.339417 2420.269775,867.363220 
	C2420.293945,888.691162 2420.299316,910.019226 2420.266846,931.347107 
	C2420.241943,947.533752 2420.118408,947.689453 2404.231934,947.696228 
	C2339.248291,947.724060 2274.264648,947.708008 2209.281006,947.717896 
	C2205.615967,947.718445 2201.935059,947.607239 2198.289551,947.899048 
	C2191.545898,948.438843 2190.481201,949.610901 2189.875977,956.493652 
	C2189.701416,958.480835 2189.736816,960.489502 2189.736328,962.488342 
	C2189.728516,990.148010 2189.728760,1017.807739 2189.736328,1045.467407 
	C2189.737061,1047.466187 2189.701172,1049.474731 2189.873535,1051.462158 
	C2190.472900,1058.380493 2191.525879,1059.553223 2198.245605,1060.097900 
	C2201.890625,1060.393433 2205.571777,1060.281372 2209.236816,1060.281982 
	C2266.888916,1060.291626 2324.541016,1060.281006 2382.193115,1060.295166 
	C2399.690918,1060.299438 2399.706299,1060.327271 2399.718262,1078.252197 
	C2399.730957,1097.247437 2399.791504,1116.243042 2399.676514,1135.237671 
	C2399.604004,1147.237183 2398.610840,1148.234619 2386.362061,1148.247437 
	C2327.043701,1148.309326 2267.725342,1148.276855 2208.406982,1148.291138 
	C2189.748535,1148.295776 2189.742920,1148.314941 2189.725586,1167.010254 
	C2189.714600,1179.006836 2189.722412,1191.003418 2189.721680,1204.000000 
z"/>
<path fill="#12B560" opacity="1.000000" stroke="none" 
	d="
M2507.718262,934.000000 
	C2507.724854,909.673035 2507.657715,886.345642 2507.770752,863.019226 
	C2507.826660,851.503723 2508.907471,850.389709 2520.449463,850.344238 
	C2548.774658,850.232605 2577.100586,850.236145 2605.425781,850.340698 
	C2617.026611,850.383484 2617.805420,851.298340 2618.293213,862.870728 
	C2618.980225,879.167786 2619.599609,895.467834 2620.346680,911.762085 
	C2620.460449,914.243286 2621.104980,916.700195 2621.781982,920.888000 
	C2624.472656,918.135071 2626.196777,916.804260 2627.379150,915.097900 
	C2659.495361,868.745483 2705.101074,846.671997 2760.038818,841.947449 
	C2772.558105,840.870789 2785.250244,841.648804 2797.858887,841.842651 
	C2802.160645,841.908813 2806.496338,842.555420 2810.735107,843.364014 
	C2821.223633,845.364746 2821.193359,845.928711 2820.733887,856.477356 
	C2820.198242,868.785706 2820.337402,881.125854 2820.294678,893.452576 
	C2820.234375,910.781006 2820.324707,928.110046 2820.237061,945.438232 
	C2820.217285,949.321533 2819.725830,953.202454 2819.353271,958.473145 
	C2814.518555,957.506958 2810.714844,957.009399 2807.063232,955.975342 
	C2779.803955,948.256104 2752.243164,945.487915 2724.015137,949.524475 
	C2674.875488,956.551453 2638.618408,988.180725 2626.580566,1036.215210 
	C2623.615967,1048.044189 2621.998779,1060.523804 2621.935059,1072.715820 
	C2621.526855,1150.692505 2621.732910,1228.672363 2621.718018,1306.651245 
	C2621.714844,1323.673828 2621.678955,1323.695312 2604.294189,1323.707520 
	C2577.634766,1323.726196 2550.975342,1323.718506 2524.315918,1323.701660 
	C2521.318604,1323.699829 2518.318115,1323.634033 2515.324951,1323.481079 
	C2510.559082,1323.237793 2507.999268,1320.730347 2507.899902,1315.893066 
	C2507.817871,1311.895752 2507.728271,1307.897705 2507.727783,1303.899902 
	C2507.718262,1180.933228 2507.719238,1057.966675 2507.718262,934.000000 
z"/>
<path fill="#12B560" opacity="1.000000" stroke="none" 
	d="
M6.279607,1303.851318 
	C6.279204,1158.571533 6.277225,1014.265686 6.285425,869.959839 
	C6.285652,865.961792 6.291762,861.958801 6.480152,857.966919 
	C6.704985,853.202698 9.380547,850.714966 14.107622,850.466309 
	C16.435839,850.343872 18.770700,850.302856 21.102581,850.302002 
	C49.763786,850.291687 78.425003,850.287842 107.086197,850.308838 
	C109.748619,850.310791 112.428192,850.337708 115.069145,850.630005 
	C118.881226,851.051941 121.097031,853.359680 121.408867,857.163879 
	C121.680557,860.478577 121.708755,863.819702 121.709061,867.149170 
	C121.722214,1013.787903 121.725441,1160.426636 121.713036,1307.065430 
	C121.711632,1323.649170 121.656197,1323.687500 104.871964,1323.702148 
	C77.543854,1323.726074 50.215702,1323.713989 22.887575,1323.700317 
	C19.889469,1323.698853 16.886101,1323.679077 13.894550,1323.505737 
	C9.116768,1323.229248 6.646927,1320.537964 6.458038,1315.819580 
	C6.311471,1312.158203 6.332764,1308.490234 6.279607,1303.851318 
z"/>
<path fill="#12B560" opacity="1.000000" stroke="none" 
	d="
M1358.279175,1232.000000 
	C1358.279175,1110.436890 1358.276123,989.873901 1358.280884,869.310852 
	C1358.281616,850.305908 1358.297607,850.297729 1377.727295,850.292175 
	C1403.704956,850.284729 1429.682739,850.284851 1455.660400,850.301758 
	C1458.655884,850.303711 1461.654785,850.367981 1464.646240,850.518677 
	C1469.397461,850.757996 1471.980957,853.230774 1472.098145,858.075562 
	C1472.170532,861.071472 1472.266968,864.068054 1472.267212,867.064331 
	C1472.275757,1013.605042 1472.279907,1160.145752 1472.268433,1306.686523 
	C1472.267090,1323.660889 1472.224854,1323.687256 1454.910522,1323.702393 
	C1428.266724,1323.725708 1401.623047,1323.713745 1374.979248,1323.700928 
	C1371.982910,1323.699463 1368.982056,1323.681030 1365.991455,1323.519165 
	C1361.245117,1323.262451 1358.697632,1320.660645 1358.462524,1315.924927 
	C1358.313965,1312.933228 1358.288574,1309.933105 1358.286987,1306.936768 
	C1358.273926,1282.291138 1358.279175,1257.645630 1358.279175,1232.000000 
z"/>

</svg>